<svg xmlns="http://www.w3.org/2000/svg" width="25.718" height="27.549" viewBox="0 0 25.718 27.549">
  <g id="Group_16413" data-name="Group 16413" transform="translate(-1131.997 -31)">
    <path id="Path_69162" data-name="Path 69162" d="M15.131,30.049a2.834,2.834,0,0,0,2.825-2.825H12.306A2.825,2.825,0,0,0,15.131,30.049Zm8.476-8.476V14.508c0-4.337-2.317-7.968-6.357-8.929V4.619a2.119,2.119,0,1,0-4.238,0V5.58c-4.055.961-6.357,4.577-6.357,8.929v7.064L4.832,23.395a1.413,1.413,0,0,0,.989,2.416H24.427a1.417,1.417,0,0,0,1-2.416Z" transform="translate(1127.583 28.5)" fill="#9164f5"/>
    <circle id="Ellipse_1606" data-name="Ellipse 1606" cx="6" cy="6" r="6" transform="translate(1145.715 33)" fill="#d95a98"/>
  </g>
</svg>
